# xmcd
#
# Track frame offsets: 
#        150
#        15963
#        31453
#        41480
#        60092
#        72458
#        81698
#        96665
#        114466
#        127391
#        146017
#        157341
#        174353
#        187870
#        208221
#        222921
#
# Disc length: 3178 seconds
#
# Revision: 1
# Processed by: cddbd v1.5.2PL0 Copyright (c) Steve Scherf et al.
# Submitted via: ExactAudioCopyFreeDBPlugin 1.0
#
DISCID=f10c6810
DTITLE=Ian Dury and The Blockheads - Laughter [CD2]
DYEAR=2004
DGENRE=Pop/Rock
TTITLE0=Duff 'em Up And Do 'em Over (Boogie Woogie)
TTITLE1=You Are Here
TTITLE2=Come In No.9
TTITLE3=Chicken [Take Your Elbow Out Of The Soup] (Demo Instrumental)
TTITLE4=CC's Rock (Demo Instrumental)
TTITLE5=I Know Your Name (Demo Instrumental)
TTITLE6=Public Party [Dance Of The Crackpots] (Demo Instrumental)
TTITLE7=Black And White [Yes And No (Paula)] (Demo Instrumental)
TTITLE8=Manic Depression (Demo Instrumental)
TTITLE9=More Turns For Everyone (Demo Instrumental)
TTITLE10=Blue Light [That's Not All] (Demo Instrumental)
TTITLE11=Back To Y-Front (Demo Instrumental)
TTITLE12=Fatback (Demo Instrumental)
TTITLE13=On The Spot (Do The Block) (Demo Instrumental)
TTITLE14=Duff 'em And Do 'em Over (Boogie Woogie) [Oh Mr. Peanut] (Dem
TTITLE14=o Instrumental)
TTITLE15=Peter Gunn (Demo Instrumental)
EXTD=
EXTT0=
EXTT1=
EXTT2=
EXTT3=
EXTT4=
EXTT5=
EXTT6=
EXTT7=
EXTT8=
EXTT9=
EXTT10=
EXTT11=
EXTT12=
EXTT13=
EXTT14=
EXTT15=
PLAYORDER=
